<?xml version="1.0" standalone="no"?><!DOCTYPE svg PUBLIC "-//W3C//DTD SVG 1.1//EN" "http://www.w3.org/Graphics/SVG/1.1/DTD/svg11.dtd"><svg t="1768810347594" class="icon" viewBox="0 0 1024 1024" version="1.1" xmlns="http://www.w3.org/2000/svg" p-id="1841" xmlns:xlink="http://www.w3.org/1999/xlink" width="200" height="200"><path d="M736 917.333c-6.4 0-14.933-2.133-21.333-6.4L512 797.867 309.333 908.8c-14.933 8.533-32 8.533-44.8-2.133-12.8-10.667-21.333-25.6-17.066-42.667l38.4-238.933-166.4-172.8C108.8 441.6 104.533 424.533 108.8 409.6c4.267-14.933 17.067-25.6 34.133-27.733l151.467-19.2c12.8-2.134 23.467 6.4 23.467 19.2 2.133 12.8-6.4 23.466-19.2 23.466l-149.334 19.2 174.934 179.2c4.266 4.267 6.4 10.667 6.4 19.2l-40.534 249.6L503.467 755.2c6.4-4.267 14.933-4.267 21.333 0l213.333 117.333L697.6 620.8c-2.133-6.4 2.133-12.8 6.4-19.2l170.667-174.933L635.733 390.4c-6.4-2.133-12.8-6.4-17.066-12.8L512 149.333 401.067 375.467C396.8 386.133 384 390.4 373.333 386.133c-10.666-4.266-14.933-17.066-10.666-27.733L473.6 132.267c8.533-14.934 23.467-25.6 38.4-25.6 17.067 0 32 8.533 38.4 25.6l100.267 215.466L881.067 384c17.066 2.133 29.866 12.8 34.133 29.867 4.267 14.933 2.133 32-10.667 42.666L738.133 627.2l38.4 241.067c2.134 17.066-4.266 32-17.066 40.533-6.4 4.267-14.934 8.533-23.467 8.533z" p-id="1842"></path></svg>
